<svg width="260" height="105" viewBox="-12 -10 260 105" fill="none" xmlns="http://www.w3.org/2000/svg" preserveAspectRatio="xMidYMid meet" role="img" aria-labelledby="title desc">
  <title id="title">anggeum&amp;cake logo</title>
  <desc id="desc">Horizontal coral anggeum and cake logo on a transparent background.</desc>
  <g stroke="#ff6f70" stroke-linecap="round" stroke-linejoin="round">
    <path d="M9.5 29.7c5 9.7 33.1 9.7 38.2 0" stroke-width="3.8"/>
    <path d="M9.9 29.6c1.6-5.6 8.6-10.2 17.1-10.9 9.4-.8 17.4 3.2 20.4 9.3" stroke-width="3.4"/>
    <path d="M9.3 31.3v9.1c0 6.2 8.3 11.2 19 11.2s19.3-5 19.3-11.2v-9.2" stroke-width="3.4"/>
    <path d="M11.6 40.7c8 6.4 25.4 6.5 33.5.2" stroke-width="3.1"/>
  </g>
  <g stroke="#ff6f70" stroke-linecap="round" stroke-linejoin="round" stroke-width="2.5">
    <path d="M19.6 20.5c-3-2.9-.8-7.5 3.5-7.4 2.7 0 4.2 1.6 4.2 3.5 0 3.9-4.9 5.8-8.9 4.8"/>
    <path d="M22.7 15.1c-2.4 1-2.6 3.8-.2 4.9 2.6 1.1 5.7-.9 5.6-3.5"/>
    <path d="M33.4 20.5c-3-2.9-.8-7.5 3.5-7.4 2.7 0 4.2 1.6 4.2 3.5 0 3.9-4.9 5.8-8.9 4.8"/>
    <path d="M36.5 15.1c-2.4 1-2.6 3.8-.2 4.9 2.6 1.1 5.7-.9 5.6-3.5"/>
    <path d="M26.8 24.2c-3.1-2.7-1.1-7.4 3.3-7.6 2.8-.1 4.4 1.4 4.5 3.3.2 3.9-4.6 6.1-8.7 5.2"/>
    <path d="M29.7 18.7c-2.3 1.1-2.4 3.9-.1 4.9 2.7 1 5.7-1.2 5.4-3.7"/>
    <path d="M15.1 24.9c-2.5 1-4.6 2.8-5.7 4.8"/>
    <path d="M42.8 24.9c2.5 1 4.6 2.8 5.7 4.8"/>
  </g>
  <text x="62" y="39" font-family="Arial, Helvetica, sans-serif" font-size="25" font-weight="800" letter-spacing="-1" fill="#ff6f70">anggeum&amp;cake</text>
  <text x="123" y="60" text-anchor="middle" font-family="Arial, Helvetica, sans-serif" font-size="14" font-weight="700" fill="#ff6f70">앙금앤케이크</text>
  <path d="M66 49h106" stroke="#ff9b9b" stroke-width="2.2" stroke-linecap="round"/>
  <path d="M7 59c33.5 3.2 65.3 4.9 95.5 5.1 23.4.2 45.8-2 65.6-1.5 18 .5 35.8-2.5 54.8-7.9" stroke="#ff6f70" stroke-width="2" stroke-linecap="round" opacity=".65"/>
</svg>
